<svg xmlns="http://www.w3.org/2000/svg" viewBox="0 0 64 64" fill="none">
  <defs>
    <linearGradient id="bg" x1="0" y1="0" x2="64" y2="64" gradientUnits="userSpaceOnUse">
      <stop offset="0%" stop-color="#7c3aed"/>
      <stop offset="100%" stop-color="#2563eb"/>
    </linearGradient>
  </defs>
  <rect width="64" height="64" rx="14" fill="url(#bg)"/>
  <!-- Wrench icon -->
  <path d="M42 14a10 10 0 0 0-9.9 11.4L19.8 37.7a6 6 0 1 0 6.5 6.5l12.3-12.3A10 10 0 1 0 42 14zm0 15a5 5 0 1 1 0-10 5 5 0 0 1 0 10zM24 46a2 2 0 1 1-4 0 2 2 0 0 1 4 0z" fill="white" opacity="0.95"/>
</svg>
